<svg width="20" height="20" viewBox="0 0 20 20" fill="none" xmlns="http://www.w3.org/2000/svg">
<path fill-rule="evenodd" clip-rule="evenodd" d="M19.1666 10C19.1666 12 18.4999 13.8333 17.4166 15.3333C17.4166 15.4167 17.3333 15.5 17.2499 15.5833C15.5833 17.8333 12.9166 19.25 9.91658 19.25C9.74992 19.25 9.58325 19.2292 9.41658 19.2083C9.24992 19.1875 9.08325 19.1667 8.91658 19.1667H8.83325C5.58325 18.75 2.83325 16.5833 1.58325 13.75V13.6667C1.08325 12.5 0.833252 11.25 0.833252 10C0.833252 8.00001 1.49992 6.16668 2.58325 4.66668C2.58325 4.62501 2.60409 4.60418 2.62492 4.58334C2.64575 4.56251 2.66659 4.54168 2.66659 4.50001C4.33325 2.25001 6.99992 0.833344 9.99992 0.833344C10.3333 0.833344 10.6666 0.833344 10.9999 0.916677H11.0833C14.4166 1.33334 17.1666 3.41668 18.4166 6.33334V6.41668C18.9166 7.50001 19.1666 8.75001 19.1666 10ZM8.49992 12.5H11.4166L12.8333 10L11.4166 7.50001H8.49992L7.08325 10L8.49992 12.5ZM2.49992 10C2.49992 8.83334 2.74992 7.66668 3.24992 6.66668L6.58325 12.5H2.91659C2.66659 11.75 2.49992 10.9167 2.49992 10ZM16.9999 7.50001H13.3333L16.6666 13.3333C17.1666 12.3333 17.4166 11.1667 17.4166 10C17.4166 9.08334 17.2499 8.25001 16.9999 7.50001ZM16.2499 5.83334H9.49992L11.3333 2.66668C13.4166 3.00001 15.1666 4.16668 16.2499 5.83334ZM6.16658 8.33334L9.49992 2.50001C7.41658 2.66668 5.58325 3.66668 4.33325 5.16668L6.16658 8.33334ZM3.74992 14.1667H10.4999L8.66659 17.3333C6.58325 17 4.83325 15.8333 3.74992 14.1667ZM13.8333 11.6667L10.4999 17.5C12.5833 17.3333 14.4166 16.3333 15.6666 14.8333L13.8333 11.6667Z" fill="black"/>
<mask id="mask0_780_96454" style="mask-type:alpha" maskUnits="userSpaceOnUse" x="0" y="0" width="20" height="20">
<path fill-rule="evenodd" clip-rule="evenodd" d="M19.1666 10C19.1666 12 18.4999 13.8333 17.4166 15.3333C17.4166 15.4167 17.3333 15.5 17.2499 15.5833C15.5833 17.8333 12.9166 19.25 9.91658 19.25C9.74992 19.25 9.58325 19.2292 9.41658 19.2083C9.24992 19.1875 9.08325 19.1667 8.91658 19.1667H8.83325C5.58325 18.75 2.83325 16.5833 1.58325 13.75V13.6667C1.08325 12.5 0.833252 11.25 0.833252 10C0.833252 8.00001 1.49992 6.16668 2.58325 4.66668C2.58325 4.62501 2.60409 4.60418 2.62492 4.58334C2.64575 4.56251 2.66659 4.54168 2.66659 4.50001C4.33325 2.25001 6.99992 0.833344 9.99992 0.833344C10.3333 0.833344 10.6666 0.833344 10.9999 0.916677H11.0833C14.4166 1.33334 17.1666 3.41668 18.4166 6.33334V6.41668C18.9166 7.50001 19.1666 8.75001 19.1666 10ZM8.49992 12.5H11.4166L12.8333 10L11.4166 7.50001H8.49992L7.08325 10L8.49992 12.5ZM2.49992 10C2.49992 8.83334 2.74992 7.66668 3.24992 6.66668L6.58325 12.5H2.91659C2.66659 11.75 2.49992 10.9167 2.49992 10ZM16.9999 7.50001H13.3333L16.6666 13.3333C17.1666 12.3333 17.4166 11.1667 17.4166 10C17.4166 9.08334 17.2499 8.25001 16.9999 7.50001ZM16.2499 5.83334H9.49992L11.3333 2.66668C13.4166 3.00001 15.1666 4.16668 16.2499 5.83334ZM6.16658 8.33334L9.49992 2.50001C7.41658 2.66668 5.58325 3.66668 4.33325 5.16668L6.16658 8.33334ZM3.74992 14.1667H10.4999L8.66659 17.3333C6.58325 17 4.83325 15.8333 3.74992 14.1667ZM13.8333 11.6667L10.4999 17.5C12.5833 17.3333 14.4166 16.3333 15.6666 14.8333L13.8333 11.6667Z" fill="white"/>
</mask>
<g mask="url(#mask0_780_96454)">
<rect width="20" height="20" fill="white"/>
</g>
</svg>
