<svg width="20" height="20" viewBox="0 0 20 20" fill="none" xmlns="http://www.w3.org/2000/svg">
<path fill-rule="evenodd" clip-rule="evenodd" d="M12.6667 13.5C13.2501 12.9167 14.0834 12.5 15.0001 12.5C16.8334 12.5 18.3334 14 18.3334 15.8333C18.3334 17.6667 16.8334 19.1667 15.0001 19.1667C13.1667 19.1667 11.6667 17.6667 11.6667 15.8333C11.6667 15.6667 11.6876 15.5209 11.7084 15.375L11.7084 15.375L11.7084 15.375C11.7292 15.2292 11.7501 15.0833 11.7501 14.9167L7.33342 12.3333C6.75008 12.9167 5.91675 13.3333 5.00008 13.3333C3.16675 13.3333 1.66675 11.8333 1.66675 10C1.66675 8.16668 3.16675 6.66668 5.00008 6.66668C5.91675 6.66668 6.75008 7.08334 7.33342 7.66668L11.8334 5.08334C11.8191 5.02621 11.8048 4.97153 11.791 4.91845L11.7909 4.91828C11.7239 4.66177 11.6667 4.44282 11.6667 4.16668C11.6667 2.33334 13.1667 0.833344 15.0001 0.833344C16.8334 0.833344 18.3334 2.33334 18.3334 4.16668C18.3334 6.00001 16.8334 7.50001 15.0001 7.50001C14.0834 7.50001 13.2501 7.08334 12.5834 6.50001L8.16675 9.08334C8.18104 9.14052 8.19534 9.19525 8.20921 9.24836L8.20922 9.24838L8.20922 9.24839C8.27622 9.50491 8.33342 9.72387 8.33342 10C8.33342 10.1667 8.31258 10.3125 8.29175 10.4583C8.27092 10.6042 8.25008 10.75 8.25008 10.9167L12.6667 13.5ZM16.6667 4.16668C16.6667 3.25001 15.9167 2.50001 15.0001 2.50001C14.0834 2.50001 13.3334 3.25001 13.3334 4.16668C13.3334 5.08334 14.0834 5.83334 15.0001 5.83334C15.9167 5.83334 16.6667 5.08334 16.6667 4.16668ZM5.00008 11.6667C4.08341 11.6667 3.33341 10.9167 3.33341 10C3.33341 9.08334 4.08341 8.33334 5.00008 8.33334C5.91675 8.33334 6.66675 9.08334 6.66675 10C6.66675 10.9167 5.91675 11.6667 5.00008 11.6667ZM13.3334 15.8333C13.3334 16.75 14.0834 17.5 15.0001 17.5C15.9167 17.5 16.6667 16.75 16.6667 15.8333C16.6667 14.9167 15.9167 14.1667 15.0001 14.1667C14.4167 14.1667 13.8334 14.5 13.5834 15C13.4167 15.25 13.3334 15.5 13.3334 15.8333Z" fill="black"/>
<mask id="mask0_780_96441" style="mask-type:alpha" maskUnits="userSpaceOnUse" x="1" y="0" width="18" height="20">
<path fill-rule="evenodd" clip-rule="evenodd" d="M12.6667 13.5C13.2501 12.9167 14.0834 12.5 15.0001 12.5C16.8334 12.5 18.3334 14 18.3334 15.8333C18.3334 17.6667 16.8334 19.1667 15.0001 19.1667C13.1667 19.1667 11.6667 17.6667 11.6667 15.8333C11.6667 15.6667 11.6876 15.5209 11.7084 15.375L11.7084 15.375L11.7084 15.375C11.7292 15.2292 11.7501 15.0833 11.7501 14.9167L7.33342 12.3333C6.75008 12.9167 5.91675 13.3333 5.00008 13.3333C3.16675 13.3333 1.66675 11.8333 1.66675 10C1.66675 8.16668 3.16675 6.66668 5.00008 6.66668C5.91675 6.66668 6.75008 7.08334 7.33342 7.66668L11.8334 5.08334C11.8191 5.02621 11.8048 4.97153 11.791 4.91845L11.7909 4.91828C11.7239 4.66177 11.6667 4.44282 11.6667 4.16668C11.6667 2.33334 13.1667 0.833344 15.0001 0.833344C16.8334 0.833344 18.3334 2.33334 18.3334 4.16668C18.3334 6.00001 16.8334 7.50001 15.0001 7.50001C14.0834 7.50001 13.2501 7.08334 12.5834 6.50001L8.16675 9.08334C8.18104 9.14052 8.19534 9.19525 8.20921 9.24836L8.20922 9.24838L8.20922 9.24839C8.27622 9.50491 8.33342 9.72387 8.33342 10C8.33342 10.1667 8.31258 10.3125 8.29175 10.4583C8.27092 10.6042 8.25008 10.75 8.25008 10.9167L12.6667 13.5ZM16.6667 4.16668C16.6667 3.25001 15.9167 2.50001 15.0001 2.50001C14.0834 2.50001 13.3334 3.25001 13.3334 4.16668C13.3334 5.08334 14.0834 5.83334 15.0001 5.83334C15.9167 5.83334 16.6667 5.08334 16.6667 4.16668ZM5.00008 11.6667C4.08341 11.6667 3.33341 10.9167 3.33341 10C3.33341 9.08334 4.08341 8.33334 5.00008 8.33334C5.91675 8.33334 6.66675 9.08334 6.66675 10C6.66675 10.9167 5.91675 11.6667 5.00008 11.6667ZM13.3334 15.8333C13.3334 16.75 14.0834 17.5 15.0001 17.5C15.9167 17.5 16.6667 16.75 16.6667 15.8333C16.6667 14.9167 15.9167 14.1667 15.0001 14.1667C14.4167 14.1667 13.8334 14.5 13.5834 15C13.4167 15.25 13.3334 15.5 13.3334 15.8333Z" fill="white"/>
</mask>
<g mask="url(#mask0_780_96441)">
<rect width="20" height="20" fill="white"/>
</g>
</svg>
