<svg width="20" height="20" viewBox="0 0 20 20" fill="none" xmlns="http://www.w3.org/2000/svg">
<path fill-rule="evenodd" clip-rule="evenodd" d="M9.16675 3.64904L7.25008 5.56789C6.91675 5.9016 6.41675 5.9016 6.08341 5.56789C5.75008 5.23418 5.75008 4.73361 6.08341 4.3999L9.41675 1.06277C9.45841 1.02106 9.50008 1.0002 9.54175 0.979343C9.58341 0.958486 9.62508 0.937629 9.66675 0.895915C9.91675 0.812486 10.1667 0.812486 10.3334 0.895915C10.4167 0.895915 10.5001 0.979339 10.5834 1.06277L10.5834 1.06277L13.9167 4.3999C14.2501 4.73361 14.2501 5.23418 13.9167 5.56789C13.7501 5.73475 13.5834 5.81817 13.3334 5.81817C13.0834 5.81817 12.9167 5.73475 12.7501 5.56789L10.8334 3.64904V13.3267C10.8334 13.8273 10.5001 14.161 10.0001 14.161C9.50008 14.161 9.16675 13.8273 9.16675 13.3267V3.64904ZM18.3334 16.6638V14.161C18.3334 13.6604 18.0001 13.3267 17.5001 13.3267C17.0001 13.3267 16.6667 13.6604 16.6667 14.161V16.6638C16.6667 17.1644 16.3334 17.4981 15.8334 17.4981H4.16675C3.66675 17.4981 3.33341 17.1644 3.33341 16.6638V14.161C3.33341 13.6604 3.00008 13.3267 2.50008 13.3267C2.00008 13.3267 1.66675 13.6604 1.66675 14.161V16.6638C1.66675 18.0821 2.75008 19.1667 4.16675 19.1667H15.8334C17.2501 19.1667 18.3334 18.0821 18.3334 16.6638Z" fill="black"/>
<mask id="mask0_780_96326" style="mask-type:alpha" maskUnits="userSpaceOnUse" x="1" y="0" width="18" height="20">
<path fill-rule="evenodd" clip-rule="evenodd" d="M9.16675 3.64904L7.25008 5.56789C6.91675 5.9016 6.41675 5.9016 6.08341 5.56789C5.75008 5.23418 5.75008 4.73361 6.08341 4.3999L9.41675 1.06277C9.45841 1.02106 9.50008 1.0002 9.54175 0.979343C9.58341 0.958486 9.62508 0.937629 9.66675 0.895915C9.91675 0.812486 10.1667 0.812486 10.3334 0.895915C10.4167 0.895915 10.5001 0.979339 10.5834 1.06277L10.5834 1.06277L13.9167 4.3999C14.2501 4.73361 14.2501 5.23418 13.9167 5.56789C13.7501 5.73475 13.5834 5.81817 13.3334 5.81817C13.0834 5.81817 12.9167 5.73475 12.7501 5.56789L10.8334 3.64904V13.3267C10.8334 13.8273 10.5001 14.161 10.0001 14.161C9.50008 14.161 9.16675 13.8273 9.16675 13.3267V3.64904ZM18.3334 16.6638V14.161C18.3334 13.6604 18.0001 13.3267 17.5001 13.3267C17.0001 13.3267 16.6667 13.6604 16.6667 14.161V16.6638C16.6667 17.1644 16.3334 17.4981 15.8334 17.4981H4.16675C3.66675 17.4981 3.33341 17.1644 3.33341 16.6638V14.161C3.33341 13.6604 3.00008 13.3267 2.50008 13.3267C2.00008 13.3267 1.66675 13.6604 1.66675 14.161V16.6638C1.66675 18.0821 2.75008 19.1667 4.16675 19.1667H15.8334C17.2501 19.1667 18.3334 18.0821 18.3334 16.6638Z" fill="white"/>
</mask>
<g mask="url(#mask0_780_96326)">
<rect width="20" height="20" fill="white"/>
</g>
</svg>
