<svg width="20" height="20" viewBox="0 0 20 20" fill="none" xmlns="http://www.w3.org/2000/svg">
<path fill-rule="evenodd" clip-rule="evenodd" d="M19.5833 5.08334C19.3333 4.91668 19 5.00001 18.75 5.16668L14.1667 8.41668V5.83334C14.1667 4.41668 13.0833 3.33334 11.6667 3.33334H2.5C1.08333 3.33334 0 4.41668 0 5.83334V14.1667C0 15.5833 1.08333 16.6667 2.5 16.6667H11.6667C13.0833 16.6667 14.1667 15.5833 14.1667 14.1667V11.5833L18.6667 14.8333C18.8333 14.9167 19 15 19.1667 15C19.3333 15 19.4167 15 19.5833 14.9167C19.8333 14.75 20 14.5 20 14.1667V5.83334C20 5.50001 19.8333 5.25001 19.5833 5.08334ZM12.5 14.1667C12.5 14.6667 12.1667 15 11.6667 15H2.5C2 15 1.66667 14.6667 1.66667 14.1667V5.83334C1.66667 5.33334 2 5.00001 2.5 5.00001H11.6667C12.1667 5.00001 12.5 5.33334 12.5 5.83334V14.1667ZM14.75 10L18.3333 12.5833V7.41668L14.75 10Z" fill="black"/>
<mask id="mask0_780_96430" style="mask-type:alpha" maskUnits="userSpaceOnUse" x="0" y="3" width="20" height="14">
<path fill-rule="evenodd" clip-rule="evenodd" d="M19.5833 5.08334C19.3333 4.91668 19 5.00001 18.75 5.16668L14.1667 8.41668V5.83334C14.1667 4.41668 13.0833 3.33334 11.6667 3.33334H2.5C1.08333 3.33334 0 4.41668 0 5.83334V14.1667C0 15.5833 1.08333 16.6667 2.5 16.6667H11.6667C13.0833 16.6667 14.1667 15.5833 14.1667 14.1667V11.5833L18.6667 14.8333C18.8333 14.9167 19 15 19.1667 15C19.3333 15 19.4167 15 19.5833 14.9167C19.8333 14.75 20 14.5 20 14.1667V5.83334C20 5.50001 19.8333 5.25001 19.5833 5.08334ZM12.5 14.1667C12.5 14.6667 12.1667 15 11.6667 15H2.5C2 15 1.66667 14.6667 1.66667 14.1667V5.83334C1.66667 5.33334 2 5.00001 2.5 5.00001H11.6667C12.1667 5.00001 12.5 5.33334 12.5 5.83334V14.1667ZM14.75 10L18.3333 12.5833V7.41668L14.75 10Z" fill="white"/>
</mask>
<g mask="url(#mask0_780_96430)">
<rect width="20" height="20" fill="white"/>
</g>
</svg>
